<svg width="250" height="42" viewBox="0 0 250 42" fill="none" xmlns="http://www.w3.org/2000/svg">
<path d="M54.8594 35.3764V36.489H56.8086V37.2713H54.8594V38.8053H53.885V34.5942H57.0677V35.3764H54.8594Z" fill="#00B0A2"/>
<path d="M57.952 34.5942H58.9265V38.8053H57.952V34.5942Z" fill="#00B0A2"/>
<path d="M64.0103 34.5942V38.8053H63.2102L61.1102 36.2487V38.8053H60.148V34.5942H60.9536L63.0474 37.1513V34.5942H64.0103Z" fill="#00B0A2"/>
<path fill-rule="evenodd" clip-rule="evenodd" d="M68.0049 37.9032H66.0498L65.6766 38.8053H64.678L66.5552 34.5942H67.5174L69.4008 38.8053H68.3782L68.0049 37.9032ZM67.6981 37.1629L67.0305 35.5508L66.3624 37.1629H67.6981Z" fill="#00B0A2"/>
<path d="M73.9249 34.5942V38.8053H73.1244L71.0248 36.2487V38.8053H70.062V34.5942H70.8683L72.962 37.1513V34.5942H73.9249Z" fill="#00B0A2"/>
<path d="M75.9982 38.5982C75.6511 38.4118 75.3784 38.1526 75.1794 37.8222C74.9811 37.4913 74.882 37.1175 74.882 36.7002C74.882 36.2829 74.9811 35.9086 75.1794 35.5782C75.3784 35.2468 75.6511 34.9882 75.9982 34.8018C76.3449 34.6154 76.735 34.5222 77.1685 34.5222C77.5329 34.5222 77.8632 34.5861 78.1581 34.7144C78.4528 34.8432 78.7005 35.0274 78.9009 35.2683L78.2753 35.8458C77.9905 35.517 77.6375 35.3526 77.2162 35.3526C76.9554 35.3526 76.723 35.4091 76.5182 35.5238C76.314 35.6379 76.1544 35.7976 76.0402 36.0023C75.9255 36.2065 75.8685 36.439 75.8685 36.7002C75.8685 36.961 75.9255 37.1934 76.0402 37.3981C76.1544 37.6023 76.314 37.762 76.5182 37.8762C76.723 37.9903 76.9554 38.0479 77.2162 38.0479C77.6375 38.0479 77.9905 37.8814 78.2753 37.5484L78.9009 38.1259C78.7005 38.3704 78.4518 38.5573 78.1548 38.6856C77.858 38.8139 77.5272 38.8777 77.1622 38.8777C76.7329 38.8777 76.3449 38.7845 75.9982 38.5982Z" fill="#00B0A2"/>
<path d="M79.779 34.5942H80.7539V38.8053H79.779V34.5942Z" fill="#00B0A2"/>
<path fill-rule="evenodd" clip-rule="evenodd" d="M84.7478 37.9032H82.7928L82.4196 38.8053H81.421L83.2981 34.5942H84.261L86.1436 38.8053H85.121L84.7478 37.9032ZM84.441 37.1629L83.7736 35.5508L83.106 37.1629H84.441Z" fill="#00B0A2"/>
<path d="M86.806 34.5942H87.781V38.0116H89.8925V38.8053H86.806L86.806 34.5942Z" fill="#00B0A2"/>
<path d="M93.4392 38.5982C93.092 38.4118 92.8193 38.1526 92.6209 37.8222C92.4224 37.4913 92.323 37.1175 92.323 36.7002C92.323 36.2829 92.4224 35.9086 92.6209 35.5782C92.8193 35.2468 93.092 34.9882 93.4392 34.8018C93.7858 34.6154 94.1758 34.5222 94.6094 34.5222C94.9742 34.5222 95.3041 34.5861 95.599 34.7144C95.8937 34.8432 96.1414 35.0274 96.3419 35.2683L95.7162 35.8458C95.4314 35.517 95.0784 35.3526 94.657 35.3526C94.3963 35.3526 94.1638 35.4091 93.9591 35.5238C93.7549 35.6379 93.5953 35.7976 93.4811 36.0023C93.367 36.2065 93.3093 36.439 93.3093 36.7002C93.3093 36.961 93.367 37.1934 93.4811 37.3981C93.5953 37.6023 93.7549 37.762 93.9591 37.8762C94.1638 37.9903 94.3963 38.0479 94.657 38.0479C95.0784 38.0479 95.4314 37.8814 95.7162 37.5484L96.3419 38.1259C96.1414 38.3704 95.8926 38.5573 95.5958 38.6856C95.299 38.8139 94.968 38.8777 94.6031 38.8777C94.1738 38.8777 93.7858 38.7845 93.4392 38.5982Z" fill="#00B0A2"/>
<path fill-rule="evenodd" clip-rule="evenodd" d="M97.987 38.595C97.6357 38.4065 97.3614 38.1468 97.1624 37.8159C96.964 37.4851 96.865 37.1128 96.865 36.7002C96.865 36.2871 96.964 35.9149 97.1624 35.584C97.3615 35.2531 97.6357 34.9934 97.987 34.8044C98.3378 34.6165 98.7321 34.5222 99.1688 34.5222C99.606 34.5222 99.9991 34.6165 100.348 34.8044C100.697 34.9934 100.972 35.2531 101.172 35.584C101.373 35.9149 101.473 36.2872 101.473 36.7002C101.473 37.1128 101.373 37.4851 101.172 37.8159C100.972 38.1468 100.697 38.4066 100.348 38.595C99.9991 38.7835 99.606 38.8777 99.1688 38.8777C98.7321 38.8777 98.3378 38.7835 97.987 38.595ZM99.8426 37.8762C100.044 37.762 100.201 37.6023 100.315 37.3981C100.43 37.1934 100.487 36.961 100.487 36.7002C100.487 36.439 100.43 36.2065 100.315 36.0023C100.201 35.7976 100.044 35.6379 99.8426 35.5238C99.6426 35.4091 99.4175 35.3526 99.1688 35.3526C98.9206 35.3526 98.6959 35.4091 98.495 35.5238C98.2948 35.6379 98.1373 35.7976 98.0227 36.0023C97.9086 36.2065 97.8514 36.439 97.8514 36.7002C97.8514 36.961 97.9086 37.1934 98.0227 37.3981C98.1373 37.6023 98.2948 37.762 98.495 37.8762C98.6959 37.9903 98.9206 38.0479 99.1688 38.0479C99.4175 38.0479 99.6426 37.9903 99.8426 37.8762Z" fill="#00B0A2"/>
<path d="M106.262 38.8053L106.257 36.2786L105.017 38.3602H104.578L103.344 36.3325V38.8053H102.43V34.5942H103.236L104.812 37.211L106.364 34.5942H107.164L107.177 38.8053L106.262 38.8053Z" fill="#00B0A2"/>
<path fill-rule="evenodd" clip-rule="evenodd" d="M111.193 34.7806C111.467 34.9047 111.679 35.0812 111.827 35.31C111.976 35.5388 112.05 35.8094 112.05 36.122C112.05 36.4309 111.976 36.7006 111.827 36.9314C111.679 37.1623 111.467 37.3383 111.193 37.4608C110.918 37.5833 110.594 37.6445 110.221 37.6445H109.373V38.8053H108.398V34.5942H110.221C110.594 34.5942 110.918 34.656 111.193 34.7806ZM110.835 36.6608C110.987 36.534 111.063 36.355 111.063 36.122C111.063 35.8859 110.987 35.7037 110.835 35.578C110.682 35.4513 110.46 35.388 110.167 35.388H109.373V36.8498H110.167C110.46 36.8498 110.682 36.7869 110.835 36.6608Z" fill="#00B0A2"/>
<path fill-rule="evenodd" clip-rule="evenodd" d="M115.528 37.9032H113.573L113.199 38.8053H112.201L114.078 34.5942H115.04L116.923 38.8053H115.901L115.528 37.9032ZM115.221 37.1629L114.553 35.5508L113.885 37.1629H115.221Z" fill="#00B0A2"/>
<path d="M121.447 34.5942V38.8053H120.648L118.547 36.2487V38.8053H117.585V34.5942H118.392L120.485 37.1513V34.5942H121.447Z" fill="#00B0A2"/>
<path d="M124.69 37.3137V38.8053H123.716V37.3011L122.085 34.5942H123.12L124.245 36.4649L125.37 34.5942H126.326L124.69 37.3137Z" fill="#00B0A2"/>
<path d="M128.884 34.5942H129.859V38.0116H131.97V38.8053H128.884L128.884 34.5942Z" fill="#00B0A2"/>
<path d="M132.74 34.5942H133.715V38.8053H132.74V34.5942Z" fill="#00B0A2"/>
<path d="M138.769 38.8053L138.763 36.2786L137.523 38.3602H137.084L135.85 36.3325V38.8053H134.936V34.5942H135.742L137.319 37.211L138.871 34.5942H139.671L139.683 38.8053L138.769 38.8053Z" fill="#00B0A2"/>
<path d="M140.904 34.5942H141.879V38.8053H140.904V34.5942Z" fill="#00B0A2"/>
<path d="M143.973 35.388H142.625V34.5942H146.295V35.388H144.948V38.8053H143.973L143.973 35.388Z" fill="#00B0A2"/>
<path d="M150.302 38.0236V38.8053H147.041V34.5942H150.224V35.3764H148.01V36.2906H149.965V37.0487H148.01V38.0236H150.302Z" fill="#00B0A2"/>
<path fill-rule="evenodd" clip-rule="evenodd" d="M151.301 34.5942H153.214C153.671 34.5942 154.075 34.6812 154.426 34.8555C154.777 35.0299 155.05 35.2759 155.245 35.5927C155.439 35.91 155.536 36.2786 155.536 36.7C155.536 37.121 155.439 37.49 155.245 37.8068C155.05 38.1236 154.777 38.3691 154.426 38.544C154.075 38.7183 153.671 38.8053 153.214 38.8053H151.301V34.5942ZM153.166 38.0053C153.587 38.0053 153.922 37.888 154.174 37.6535C154.424 37.4189 154.549 37.1011 154.549 36.7C154.549 36.2984 154.424 35.9806 154.174 35.7461C153.922 35.5115 153.587 35.3942 153.166 35.3942H152.276V38.0053L153.166 38.0053Z" fill="#00B0A2"/>
<path fill-rule="evenodd" clip-rule="evenodd" d="M161.213 34.7806C161.488 34.9047 161.699 35.0812 161.847 35.31C161.996 35.5388 162.07 35.8094 162.07 36.122C162.07 36.4309 161.996 36.7006 161.847 36.9314C161.699 37.1623 161.488 37.3383 161.213 37.4608C160.938 37.5833 160.614 37.6445 160.24 37.6445H159.392V38.8053H158.418V34.5942H160.24C160.614 34.5942 160.938 34.656 161.213 34.7806ZM160.854 36.6608C161.007 36.534 161.083 36.355 161.083 36.122C161.083 35.8859 161.007 35.7037 160.854 35.578C160.702 35.4513 160.48 35.388 160.187 35.388H159.392V36.8498H160.187C160.48 36.8498 160.702 36.7869 160.854 36.6608Z" fill="#00B0A2"/>
<path fill-rule="evenodd" clip-rule="evenodd" d="M165.547 37.9032H163.592L163.219 38.8053H162.22L164.097 34.5942H165.06L166.942 38.8053H165.92L165.547 37.9032ZM165.24 37.1629L164.572 35.5508L163.905 37.1629H165.24Z" fill="#00B0A2"/>
<path fill-rule="evenodd" clip-rule="evenodd" d="M170.288 38.8053L169.476 37.632H169.427H168.579V38.8053H167.605V34.5942H169.427C169.801 34.5942 170.125 34.656 170.4 34.7806C170.674 34.9047 170.886 35.0812 171.034 35.31C171.183 35.5388 171.257 35.8094 171.257 36.122C171.257 36.4351 171.181 36.7047 171.031 36.9314C170.88 37.1581 170.667 37.3314 170.391 37.4518L171.335 38.8053H170.288ZM170.041 35.578C169.889 35.4513 169.667 35.388 169.373 35.388H168.579V36.856H169.373C169.667 36.856 169.889 36.7917 170.041 36.6634C170.194 36.5351 170.27 36.355 170.27 36.122C170.27 35.8859 170.194 35.7037 170.041 35.578V35.578Z" fill="#00B0A2"/>
<path d="M173.061 35.388H171.714V34.5942H175.383V35.388H174.036V38.8053H173.061L173.061 35.388Z" fill="#00B0A2"/>
<path d="M179.993 34.5942V38.8053H179.192L177.093 36.2487V38.8053H176.13V34.5942H176.937L179.03 37.1513V34.5942H179.993Z" fill="#00B0A2"/>
<path d="M184.474 38.0236V38.8053H181.214V34.5942H184.396V35.3764H182.182V36.2906H184.138V37.0487H182.182V38.0236H184.474Z" fill="#00B0A2"/>
<path fill-rule="evenodd" clip-rule="evenodd" d="M188.156 38.8053L187.344 37.632H187.296H186.448V38.8053H185.473V34.5942H187.296C187.669 34.5942 187.993 34.656 188.268 34.7806C188.542 34.9047 188.754 35.0812 188.903 35.31C189.051 35.5388 189.125 35.8094 189.125 36.122C189.125 36.4351 189.05 36.7047 188.899 36.9314C188.75 37.1581 188.535 37.3314 188.259 37.4518L189.204 38.8053H188.156ZM187.91 35.578C187.757 35.4513 187.535 35.388 187.242 35.388H186.448V36.856H187.242C187.535 36.856 187.757 36.7917 187.91 36.6634C188.062 36.5351 188.138 36.355 188.138 36.122C188.138 35.8859 188.062 35.7037 187.91 35.578V35.578Z" fill="#00B0A2"/>
<path d="M190.536 38.7426C190.225 38.6521 189.976 38.5348 189.787 38.3908L190.118 37.6563C190.299 37.7887 190.513 37.895 190.761 37.9751C191.011 38.0558 191.259 38.0961 191.508 38.0961C191.784 38.0961 191.989 38.0547 192.121 37.9725C192.254 37.8903 192.32 37.7809 192.32 37.6447C192.32 37.5442 192.281 37.461 192.202 37.395C192.125 37.3285 192.025 37.2756 191.902 37.2353C191.779 37.195 191.614 37.1515 191.405 37.1029C191.085 37.0269 190.822 36.9505 190.617 36.8746C190.413 36.7982 190.238 36.6762 190.091 36.5076C189.944 36.339 189.871 36.1144 189.871 35.8337C189.871 35.5892 189.937 35.3672 190.07 35.1688C190.202 34.9704 190.402 34.8128 190.668 34.6965C190.935 34.5803 191.261 34.5222 191.646 34.5222C191.915 34.5222 192.178 34.5542 192.434 34.6185C192.691 34.6824 192.916 34.7746 193.108 34.895L192.807 35.6348C192.419 35.4144 192.029 35.3039 191.64 35.3039C191.367 35.3039 191.166 35.3484 191.035 35.4364C190.905 35.5248 190.84 35.6411 190.84 35.7856C190.84 35.9296 190.915 36.0374 191.066 36.107C191.216 36.1777 191.446 36.2468 191.754 36.3149C192.075 36.3908 192.338 36.4672 192.543 36.5437C192.747 36.6196 192.923 36.74 193.069 36.9044C193.215 37.0688 193.289 37.2919 193.289 37.5725C193.289 37.8128 193.221 38.0327 193.087 38.2312C192.953 38.4296 192.751 38.5872 192.483 38.7034C192.214 38.8196 191.887 38.8777 191.502 38.8777C191.169 38.8777 190.847 38.8327 190.536 38.7427V38.7426Z" fill="#00B0A2"/>
<path d="M198.04 34.5942V38.8053H197.066V37.0786H195.153V38.8053H194.178V34.5942H195.153V36.2545H197.066V34.5942H198.04Z" fill="#00B0A2"/>
<path d="M199.263 34.5942H200.237V38.8053H199.263V34.5942Z" fill="#00B0A2"/>
<path fill-rule="evenodd" clip-rule="evenodd" d="M204.252 34.7806C204.527 34.9047 204.739 35.0812 204.887 35.31C205.036 35.5388 205.11 35.8094 205.11 36.122C205.11 36.4309 205.036 36.7006 204.887 36.9314C204.739 37.1623 204.527 37.3383 204.252 37.4608C203.978 37.5833 203.654 37.6445 203.281 37.6445H202.432V38.8053H201.458V34.5942H203.281C203.654 34.5942 203.978 34.656 204.252 34.7806ZM203.894 36.6608C204.047 36.534 204.123 36.355 204.123 36.122C204.123 35.8859 204.047 35.7037 203.894 35.578C203.742 35.4513 203.52 35.388 203.227 35.388H202.432V36.8498H203.227C203.52 36.8498 203.742 36.7869 203.894 36.6608Z" fill="#00B0A2"/>
<path d="M206.632 37.846C206.741 37.9522 206.795 38.0915 206.795 38.2637C206.795 38.3438 206.785 38.4245 206.765 38.5045C206.745 38.5846 206.701 38.7051 206.632 38.8653L206.29 39.7318H205.694L205.959 38.7752C205.858 38.7354 205.779 38.67 205.721 38.5794C205.663 38.4894 205.634 38.3841 205.634 38.2637C205.634 38.0915 205.689 37.9522 205.799 37.846C205.909 37.7396 206.049 37.6862 206.217 37.6862C206.386 37.6862 206.524 37.7396 206.632 37.846H206.632Z" fill="#00B0A2"/>
<path d="M213.509 34.5942V38.8053H212.709L210.609 36.2487V38.8053H209.647V34.5942H210.453L212.547 37.1513V34.5942H213.509Z" fill="#00B0A2"/>
<path d="M218.563 38.8053L218.556 36.2786L217.317 38.3602H216.878L215.644 36.3325V38.8053H214.73V34.5942H215.536L217.112 37.211L218.665 34.5942H219.465L219.477 38.8053L218.563 38.8053Z" fill="#00B0A2"/>
<path d="M220.699 34.5942H221.674V38.0116H223.786V38.8053H220.699V34.5942Z" fill="#00B0A2"/>
<path d="M224.949 38.7426C224.638 38.6521 224.389 38.5348 224.2 38.3908L224.531 37.6563C224.711 37.7887 224.926 37.895 225.174 37.9751C225.424 38.0558 225.672 38.0961 225.921 38.0961C226.198 38.0961 226.402 38.0547 226.535 37.9725C226.667 37.8903 226.733 37.7809 226.733 37.6447C226.733 37.5442 226.694 37.461 226.615 37.395C226.537 37.3285 226.438 37.2756 226.315 37.2353C226.192 37.195 226.027 37.1515 225.819 37.1029C225.498 37.0269 225.235 36.9505 225.03 36.8746C224.826 36.7982 224.651 36.6762 224.504 36.5076C224.357 36.339 224.285 36.1144 224.285 35.8337C224.285 35.5892 224.35 35.3672 224.483 35.1688C224.616 34.9704 224.815 34.8128 225.081 34.6965C225.348 34.5803 225.674 34.5222 226.059 34.5222C226.328 34.5222 226.591 34.5542 226.847 34.6185C227.104 34.6824 227.329 34.7746 227.521 34.895L227.22 35.6348C226.831 35.4144 226.442 35.3039 226.053 35.3039C225.78 35.3039 225.579 35.3484 225.448 35.4364C225.318 35.5248 225.253 35.6411 225.253 35.7856C225.253 35.9296 225.329 36.0374 225.479 36.107C225.629 36.1777 225.859 36.2468 226.167 36.3149C226.488 36.3908 226.751 36.4672 226.956 36.5437C227.16 36.6196 227.336 36.74 227.482 36.9044C227.629 37.0688 227.702 37.2919 227.702 37.5725C227.702 37.8128 227.634 38.0327 227.5 38.2312C227.366 38.4296 227.164 38.5872 226.896 38.7034C226.626 38.8196 226.3 38.8777 225.915 38.8777C225.582 38.8777 225.26 38.8327 224.949 38.7427L224.949 38.7426Z" fill="#00B0A2"/>
<path fill-rule="evenodd" clip-rule="evenodd" d="M233.014 36.3269C233.235 36.4353 233.409 36.5887 233.538 36.7871C233.665 36.9856 233.73 37.2154 233.73 37.4761C233.73 37.7568 233.66 38.0034 233.52 38.2159C233.379 38.4285 233.188 38.5924 232.945 38.7065C232.702 38.8207 232.433 38.8777 232.136 38.8777C231.546 38.8777 231.085 38.6976 230.752 38.3364C230.419 37.9751 230.253 37.4599 230.253 36.7903C230.253 36.3128 230.343 35.9039 230.524 35.5631C230.704 35.2217 230.956 34.9636 231.278 34.7866C231.601 34.6102 231.976 34.5222 232.4 34.5222C232.625 34.5222 232.841 34.5473 233.047 34.5971C233.254 34.6473 233.429 34.7186 233.574 34.8107L233.212 35.5269C233.004 35.3861 232.742 35.3159 232.425 35.3159C232.068 35.3159 231.784 35.4207 231.577 35.629C231.368 35.8374 231.256 36.1406 231.24 36.5374C231.488 36.2887 231.835 36.1646 232.28 36.1646C232.549 36.1646 232.793 36.2186 233.014 36.3269V36.3269ZM232.59 37.9814C232.72 37.8688 232.786 37.717 232.786 37.5243C232.786 37.3317 232.72 37.1782 232.59 37.0641C232.46 36.9499 232.286 36.8924 232.07 36.8924C231.857 36.8924 231.683 36.9515 231.546 37.0698C231.41 37.1882 231.341 37.34 231.341 37.5243C231.341 37.7086 231.408 37.8589 231.541 37.9751C231.673 38.0918 231.853 38.15 232.082 38.15C232.29 38.15 232.46 38.0939 232.59 37.9814V37.9814Z" fill="#00B0A2"/>
<path fill-rule="evenodd" clip-rule="evenodd" d="M237.068 36.3269C237.289 36.4353 237.464 36.5887 237.592 36.7871C237.72 36.9856 237.785 37.2154 237.785 37.4761C237.785 37.7568 237.714 38.0034 237.574 38.2159C237.433 38.4285 237.242 38.5924 236.999 38.7065C236.756 38.8207 236.487 38.8777 236.19 38.8777C235.6 38.8777 235.139 38.6976 234.806 38.3364C234.473 37.9751 234.307 37.4599 234.307 36.7903C234.307 36.3128 234.397 35.9039 234.578 35.5631C234.758 35.2217 235.01 34.9636 235.333 34.7866C235.655 34.6102 236.03 34.5222 236.455 34.5222C236.679 34.5222 236.895 34.5473 237.101 34.5971C237.308 34.6473 237.484 34.7186 237.628 34.8107L237.267 35.5269C237.058 35.3861 236.796 35.3159 236.479 35.3159C236.122 35.3159 235.839 35.4207 235.63 35.629C235.422 35.8374 235.31 36.1406 235.294 36.5374C235.542 36.2887 235.89 36.1646 236.334 36.1646C236.604 36.1646 236.848 36.2186 237.068 36.3269L237.068 36.3269ZM236.644 37.9814C236.775 37.8688 236.84 37.717 236.84 37.5243C236.84 37.3317 236.775 37.1782 236.644 37.0641C236.514 36.9499 236.341 36.8924 236.124 36.8924C235.911 36.8924 235.737 36.9515 235.6 37.0698C235.464 37.1882 235.396 37.34 235.396 37.5243C235.396 37.7086 235.462 37.8589 235.595 37.9751C235.727 38.0918 235.907 38.15 236.136 38.15C236.344 38.15 236.514 38.0939 236.644 37.9814V37.9814Z" fill="#00B0A2"/>
<path d="M241.51 38.0118V38.8055H238.326V38.1741L239.951 36.6401C240.124 36.4756 240.24 36.3343 240.3 36.2154C240.36 36.0971 240.39 35.9798 240.39 35.8636C240.39 35.6955 240.333 35.5657 240.219 35.4756C240.104 35.3856 239.937 35.34 239.716 35.34C239.532 35.34 239.366 35.3751 239.217 35.4458C239.068 35.5154 238.944 35.6212 238.844 35.7615L238.134 35.3039C238.299 35.0594 238.525 34.8678 238.814 34.7296C239.103 34.5913 239.434 34.5222 239.806 34.5222C240.12 34.5222 240.393 34.573 240.628 34.6756C240.863 34.7777 241.045 34.9222 241.175 35.1086C241.306 35.295 241.371 35.5149 241.371 35.7672C241.371 35.996 241.323 36.2107 241.226 36.4112C241.13 36.6118 240.943 36.8405 240.667 37.0971L239.698 38.0118L241.51 38.0118Z" fill="#00B0A2"/>
<path d="M245.931 37.921H245.244V38.8053H244.294V37.921H242.026V37.2655L244.011 34.5942H245.034L243.193 37.1267H244.324V36.3387H245.244V37.1267H245.931L245.931 37.921Z" fill="#00B0A2"/>
<path d="M249.487 34.5942V35.2257L247.922 38.8053H246.863L248.373 35.388H246.978V36.0744H246.111V34.5942L249.487 34.5942Z" fill="#00B0A2"/>
<path d="M61.4373 7.48734C62.9965 6.61509 64.7535 6.17321 66.6608 6.17321C69.5269 6.17321 71.931 7.13654 73.8069 9.03499C73.8702 9.0994 73.9567 9.13552 74.0468 9.13552H74.0478C74.1374 9.13552 74.2238 9.09991 74.2871 9.03655L75.9641 7.35959C76.0922 7.23131 76.0966 7.02451 75.9739 6.89099C74.8499 5.66953 73.463 4.72816 71.8519 4.09306C70.2505 3.46165 68.4792 3.14124 66.5891 3.14124C64.0687 3.14124 61.7567 3.70774 59.7179 4.82501C57.6733 5.94439 56.0507 7.51718 54.8949 9.50146C53.7399 11.4842 53.154 13.7324 53.154 16.1842C53.154 18.6366 53.7399 20.8848 54.8949 22.8675C56.0503 24.8513 57.6672 26.4246 59.6989 27.5434C61.7268 28.6607 64.0331 29.2267 66.5535 29.2267C68.4425 29.2267 70.22 28.9005 71.8358 28.2571C73.4562 27.6115 74.8485 26.6649 75.9739 25.4424C76.0966 25.3089 76.0922 25.1026 75.9641 24.9743L74.2871 23.2963C74.2233 23.2319 74.1279 23.1842 74.0447 23.1968C73.954 23.1979 73.8671 23.235 73.8043 23.3005C71.9525 25.2209 69.5489 26.1947 66.6608 26.1947C64.7524 26.1947 62.9954 25.7534 61.4373 24.8822C59.8806 24.0125 58.6447 22.8057 57.7634 21.2953C56.8828 19.7847 56.4357 18.0649 56.4357 16.1842C56.4357 14.3036 56.8828 12.5842 57.7634 11.0732C58.6447 9.56326 59.8806 8.35698 61.4373 7.48733L61.4373 7.48734Z" fill="#043652"/>
<path fill-rule="evenodd" clip-rule="evenodd" d="M93.8792 3.55313C93.8242 3.43272 93.7039 3.35522 93.5714 3.35522H90.9661C90.8336 3.35522 90.7132 3.43272 90.6583 3.55313L79.2388 28.5333C79.1907 28.6381 79.1995 28.76 79.2613 28.8574C79.3242 28.9538 79.4315 29.0124 79.5462 29.0124H82.2943C82.4279 29.0124 82.5487 28.9344 82.6033 28.8129L85.5105 22.3391H98.9908L101.899 28.8129C101.953 28.9344 102.074 29.0124 102.208 29.0124H104.991C105.106 29.0124 105.213 28.9538 105.276 28.8574C105.338 28.76 105.347 28.6381 105.299 28.5333L93.8792 3.55313ZM97.7248 19.5212H86.7776L92.2504 7.2715L97.7248 19.5212Z" fill="#043652"/>
<path fill-rule="evenodd" clip-rule="evenodd" d="M124.61 20.2815C126.295 19.6574 127.627 18.6898 128.573 17.4014C129.599 16.004 130.119 14.2736 130.119 12.2584C130.119 9.50292 129.167 7.30291 127.288 5.7186C125.425 4.15052 122.83 3.35522 119.575 3.35522H110.225C110.039 3.35522 109.887 3.50707 109.887 3.69398V28.6742C109.887 28.8611 110.039 29.0124 110.225 29.0124H112.866C113.053 29.0124 113.204 28.8611 113.204 28.6742V21.0909H119.575C120.202 21.0909 120.819 21.0611 121.413 21.0024L127.008 28.8705C127.071 28.9595 127.175 29.0124 127.284 29.0124H130.174C130.301 29.0124 130.417 28.9418 130.474 28.8292C130.533 28.7166 130.523 28.581 130.449 28.4779L124.61 20.2815ZM126.802 12.2584C126.802 14.1448 126.2 15.5658 124.96 16.6024C123.721 17.6396 121.885 18.1658 119.504 18.1658H113.204V6.31597H119.504C121.885 6.31597 123.721 6.83588 124.962 7.86153C126.183 8.87307 126.802 10.3526 126.802 12.2584H126.802Z" fill="#043652"/>
<path fill-rule="evenodd" clip-rule="evenodd" d="M153.861 4.98143C151.799 3.90235 149.393 3.35522 146.711 3.35522H136.539C136.352 3.35522 136.201 3.50707 136.201 3.69398V28.6742C136.201 28.8611 136.352 29.0124 136.539 29.0124H146.711C149.393 29.0124 151.799 28.4658 153.861 27.3862C155.929 26.304 157.56 24.7721 158.706 22.8338C159.851 20.8982 160.431 18.6611 160.431 16.1841C160.431 13.7076 159.851 11.4705 158.706 9.53536C157.561 7.59766 155.93 6.06572 153.861 4.98143ZM157.149 16.1841C157.149 18.1129 156.708 19.8375 155.839 21.3113C154.972 22.7841 153.732 23.9543 152.154 24.7888C150.571 25.6271 148.691 26.0522 146.568 26.0522H139.519V6.31598H146.568C148.69 6.31598 150.57 6.74113 152.154 7.57988C153.732 8.41496 154.972 9.58459 155.839 11.0563C156.708 12.5307 157.149 14.2558 157.149 16.1841Z" fill="#043652"/>
<rect x="166.666" y="3.35553" width="3.3177" height="25.6571" rx="0.646265" fill="#043652"/>
<path d="M198.604 3.35524H195.999C195.812 3.35524 195.661 3.50709 195.661 3.694V22.993L180.17 3.48352C180.105 3.40237 180.008 3.35523 179.904 3.35523H177.727C177.541 3.35523 177.389 3.50708 177.389 3.69399V28.6742C177.389 28.8611 177.541 29.0124 177.727 29.0124H180.368C180.555 29.0124 180.707 28.8611 180.707 28.6742V9.37674L196.163 28.8842C196.227 28.9653 196.324 29.0124 196.428 29.0124H198.604C198.791 29.0124 198.943 28.8611 198.943 28.6742V3.69398C198.943 3.50707 198.791 3.35522 198.604 3.35522L198.604 3.35524Z" fill="#043652"/>
<path fill-rule="evenodd" clip-rule="evenodd" d="M218.31 3.55313C218.256 3.43272 218.135 3.35522 218.002 3.35522H215.397C215.265 3.35522 215.144 3.43272 215.09 3.55313L203.67 28.5333C203.622 28.6381 203.631 28.76 203.693 28.8574C203.755 28.9538 203.862 29.0124 203.978 29.0124H206.726C206.859 29.0124 206.98 28.9344 207.034 28.8129L209.941 22.3391H223.422L226.33 28.8129C226.384 28.9344 226.505 29.0124 226.639 29.0124H229.422C229.537 29.0124 229.644 28.9538 229.707 28.8574C229.769 28.76 229.778 28.6381 229.73 28.5333L218.31 3.55313ZM222.346 19.5212H211.399L216.872 7.2715L222.346 19.5212Z" fill="#043652"/>
<path d="M249.19 26.0522H237.218V3.69398C237.218 3.50707 237.085 3.35522 236.921 3.35522H234.605C234.441 3.35522 234.308 3.50707 234.308 3.69398V28.6742C234.308 28.8611 234.441 29.0124 234.605 29.0124H249.19C249.354 29.0124 249.487 28.8611 249.487 28.6742V26.3904C249.487 26.2035 249.355 26.0522 249.19 26.0522Z" fill="#043652"/>
<path d="M27.5745 39.7486L24.1017 34.5009C22.8483 34.8669 21.527 35.0727 20.155 35.0727C12.3879 35.0727 6.09216 28.7768 6.09216 21.0102C6.09216 13.2438 12.3879 6.94737 20.155 6.94737C23.1824 6.94737 25.9792 7.91338 28.2735 9.54113L33.516 5.92643C29.9588 2.77354 25.2819 0.855225 20.155 0.855225C9.02356 0.855225 0 9.87879 0 21.0102C0 32.1412 9.02356 41.1648 20.155 41.1648C22.7759 41.1648 25.2777 40.6591 27.5745 39.7486H27.5745Z" fill="#043652"/>
<path d="M33.5979 22.8881L30.4634 25.0022L27.9936 21.3226L33.3566 17.6912L38.5702 14.1608C38.2005 13.0995 37.7487 12.077 37.2162 11.1048C37.0493 10.8153 36.877 10.5294 36.6969 10.2488C36.3597 9.74247 35.9996 9.25399 35.6184 8.78223L30.5974 12.1823L19.089 19.9755L27.6958 32.6855L30.9764 37.53C32.8278 36.241 34.454 34.6536 35.7855 32.8347L33.233 29.1567L39.3278 24.7237C39.5707 23.4687 39.7017 22.1734 39.7017 20.8472C39.7017 20.1441 39.6659 19.4488 39.5964 18.764L33.5979 22.8881Z" fill="#00B0A2"/>
<path fill-rule="evenodd" clip-rule="evenodd" d="M39.0688 3.27554C39.3757 3.27554 39.5961 3.23259 39.7025 3.19019C39.9013 3.11165 39.9727 2.941 39.9727 2.74202C39.9727 2.52842 39.8798 2.32946 39.6741 2.26507C39.5533 2.22999 39.3464 2.21533 39.1332 2.21533H38.6636V3.27555H39.0689L39.0688 3.27554ZM40.1144 4.97608L39.3396 3.65983C39.226 3.67396 39.1191 3.67396 39.0405 3.67396H38.6636V4.97608H38.1732V1.81009H39.1904C39.5317 1.81009 39.7805 1.83836 39.9515 1.90956C40.2641 2.03052 40.4563 2.31532 40.4563 2.71377C40.4563 3.13313 40.2008 3.43209 39.7877 3.56717L40.6486 4.97608H40.1144V4.97608ZM39.1904 1.09123C37.874 1.09123 36.9064 2.09438 36.9064 3.39648C36.9064 4.69859 37.8666 5.69439 39.1972 5.69439C40.5281 5.69439 41.4949 4.70537 41.4949 3.39648C41.4949 2.08755 40.5281 1.09123 39.1904 1.09123H39.1904ZM39.1972 5.95041C37.7176 5.95041 36.615 4.84099 36.615 3.39648C36.615 1.94516 37.7249 0.835205 39.1904 0.835205C40.713 0.835205 41.78 1.93783 41.78 3.39648C41.78 4.8478 40.6773 5.95041 39.1972 5.95041H39.1972Z" fill="#043652"/>
</svg>
